<svg width="134" height="40" viewBox="0 0 134 40" fill="none" xmlns="http://www.w3.org/2000/svg">
<g id="logo app store">
<g id="download-on-the-app-store-apple-4">
<path id="Path" d="M133.111 35.2774C133.111 36.2942 132.71 37.2694 131.996 37.988C131.281 38.7066 130.313 39.1098 129.303 39.1086H4.69646C2.59343 39.1109 0.886651 37.3958 0.883911 35.2776V4.72614C0.88665 2.60715 2.59262 0.890686 4.69646 0.890137H129.303C130.313 0.89007 131.281 1.29422 131.995 2.01365C132.71 2.73307 133.111 3.70882 133.11 4.72614L133.111 35.2774Z" fill="white"/>
<path id="Path_2" d="M129.303 40H4.69645C2.1059 39.9995 0.00479092 37.8867 0 35.2775V4.7275C0.00369443 2.11704 2.10465 0.00220236 4.69645 0H129.303C131.894 0.0033011 133.994 2.1175 133.999 4.7275V35.2775C134.001 37.8825 131.891 40 129.304 40H129.303Z" fill="#A6A6A6"/>
<path id="Path_3" d="M133.111 35.2774C133.111 36.2942 132.71 37.2694 131.996 37.988C131.281 38.7066 130.313 39.1098 129.303 39.1086H4.69646C2.59343 39.1109 0.886651 37.3958 0.883911 35.2776V4.72614C0.88665 2.60715 2.59262 0.890686 4.69646 0.890137H129.303C130.313 0.89007 131.281 1.29422 131.995 2.01365C132.71 2.73307 133.111 3.70882 133.11 4.72614L133.111 35.2774Z" fill="black"/>
<path id="Shape" fill-rule="evenodd" clip-rule="evenodd" d="M28.04 6.21875C28.2048 7.728 27.6109 9.2155 26.7429 10.3087C25.8372 11.3853 24.3882 12.2083 22.977 12.1023C22.7924 10.65 23.5073 9.1055 24.3078 8.16325C25.2126 7.09375 26.7836 6.27475 28.04 6.21875ZM32.6598 14.9259C32.502 15.0208 29.8924 16.5899 29.921 19.7895C29.9547 23.6525 33.2779 24.9307 33.3176 24.9447C33.2978 25.035 32.797 26.7892 31.5508 28.5687C30.5098 30.1362 29.4194 31.6698 27.6874 31.6968C26.8641 31.7157 26.3081 31.4775 25.7288 31.2293C25.1244 30.9703 24.4946 30.7005 23.5093 30.7005C22.4653 30.7005 21.8077 30.9791 21.1736 31.2477C20.6249 31.4801 20.0938 31.7051 19.3451 31.7358C17.6954 31.7968 16.4353 30.0632 15.3566 28.5088C13.2007 25.337 11.5223 19.5705 13.7727 15.6463C14.8631 13.722 16.8515 12.4825 18.9769 12.4495C19.9127 12.4301 20.8103 12.7934 21.5972 13.1119C22.1989 13.3554 22.7358 13.5728 23.1755 13.5728C23.5619 13.5728 24.0839 13.3641 24.6922 13.1209C25.6509 12.7377 26.8241 12.2687 28.0191 12.3955C28.8365 12.4195 31.1624 12.7205 32.663 14.924L32.6598 14.9259Z" fill="white"/>
<path id="Path_4" d="M129.303 0H62.5602L88.7023 40H129.303C131.894 39.9978 133.995 37.8843 134 35.2747V4.7273C133.995 2.11714 131.895 0.0027531 129.303 0Z" fill="url(#paint0_linear_1_2051)"/>
<g id="Group">
<path id="Shape_2" fill-rule="evenodd" clip-rule="evenodd" d="M70.6016 13.4367H69.5597V6.55469H70.6016V13.4367ZM44.9004 13.4947C44.3113 13.4947 43.8019 13.4657 43.3778 13.4167V6.98094C43.9709 6.88867 44.5703 6.8432 45.1704 6.84494C47.5988 6.84494 48.717 8.04819 48.717 10.0097C48.717 12.2722 47.3961 13.4947 44.9004 13.4947ZM86.2603 30.5444C87.0417 29.8332 87.435 28.9119 87.435 27.7787C87.435 26.8594 87.167 26.0882 86.6275 25.4699C86.0923 24.8517 85.256 24.3137 84.118 23.8514C83.1904 23.4834 82.549 23.1402 82.1973 22.8252C81.7921 22.4832 81.5886 22.0469 81.5886 21.5219C81.5886 21.0457 81.7673 20.6447 82.1197 20.3154C82.5391 19.9474 83.1247 19.7624 83.8716 19.7624C84.8171 19.7624 85.6622 19.9664 86.4112 20.3744L86.9424 18.6362C86.1469 18.2149 85.1449 18.0037 83.9423 18.0037C82.5956 18.0037 81.5132 18.3529 80.6968 19.0512C79.8804 19.7504 79.4712 20.6444 79.4712 21.7369C79.4712 23.4094 80.6291 24.6807 82.943 25.5499C83.7942 25.8649 84.4002 26.2082 84.7664 26.5762C85.131 26.9454 85.3168 27.3984 85.3168 27.9397C85.3168 28.5437 85.0925 29.0279 84.6483 29.3899C84.2056 29.7512 83.5847 29.9329 82.7862 29.9329C81.676 29.9329 80.6559 29.6572 79.7273 29.1029L79.2377 30.8804C80.0978 31.4337 81.238 31.7094 82.6601 31.7094C84.1994 31.7094 85.4002 31.3204 86.2603 30.5444ZM53.2963 31.5124H51.0409L49.8053 27.6024H45.5111L44.3342 31.5124H42.1385L46.394 18.2009H49.0219L53.2963 31.5124ZM49.4331 25.9622L48.3157 22.4862C48.1976 22.1312 47.975 21.2947 47.6494 19.9784H47.6097C47.4784 20.5447 47.269 21.3809 46.9819 22.4859L45.8836 25.9622H49.4331ZM62.8979 30.4652C63.7788 29.5179 64.2188 28.2277 64.2188 26.5952C64.2188 25.1339 63.8423 23.9554 63.0924 23.0584C62.3418 22.1629 61.4033 21.7159 60.2792 21.7159C58.8409 21.7159 57.7694 22.2892 57.0632 23.4354H57.0235L56.9053 21.9139H55.0432C55.0949 22.9922 55.1217 24.0434 55.1217 25.0689V35.4047H57.2389V30.3682C57.7902 31.2764 58.698 31.7297 59.9601 31.7297C61.1291 31.7297 62.1093 31.3084 62.8979 30.4652ZM62.0616 26.6732C62.0616 25.7389 61.8532 24.9687 61.4338 24.3617C60.9762 23.7304 60.3613 23.4142 59.5908 23.4142C59.0682 23.4142 58.5935 23.5904 58.1697 23.9374C57.7446 24.2874 57.4664 24.7449 57.3364 25.3109C57.2782 25.5227 57.2452 25.7406 57.2379 25.9602V27.5614C57.2379 28.2589 57.4505 28.8479 57.8756 29.3299C58.3007 29.8099 58.8528 30.0512 59.532 30.0512C60.3295 30.0512 60.9504 29.7402 61.3943 29.1229C61.839 28.5037 62.0616 27.6874 62.0616 26.6732ZM73.8591 30.4652C74.74 29.5179 75.18 28.2277 75.18 26.5952C75.18 25.1339 74.8025 23.9554 74.0536 23.0584C73.3007 22.1629 72.3622 21.7159 71.2391 21.7159C69.8001 21.7159 68.7284 22.2892 68.0234 23.4354H67.9837L67.8656 21.9139H66.0035C66.0551 22.9922 66.0819 24.0434 66.0819 25.0689V35.4047H68.1991V30.3682C68.7505 31.2764 69.6582 31.7297 70.9203 31.7297C72.0903 31.7297 73.0695 31.3084 73.8591 30.4652ZM73.0218 26.6732C73.0218 25.7389 72.8121 24.9687 72.393 24.3617C71.9352 23.7304 71.3225 23.4142 70.5518 23.4142C70.0294 23.4142 69.5547 23.5904 69.1286 23.9374C68.7036 24.2874 68.4264 24.7449 68.2966 25.3109C68.2321 25.5749 68.1973 25.7899 68.1973 25.9602V27.5614C68.1973 28.2589 68.4107 28.8479 68.8338 29.3299C69.2589 29.8092 69.811 30.0512 70.4922 30.0512C71.2907 30.0512 71.9116 29.7402 72.3543 29.1229C72.7992 28.5037 73.0218 27.6874 73.0218 26.6732ZM94.4534 23.5144H92.1196V28.1747C92.1196 29.3599 92.5307 29.9512 93.3551 29.9512C93.7335 29.9512 94.0474 29.9192 94.2956 29.8522L94.3541 31.4717C93.9372 31.6287 93.3878 31.7077 92.7077 31.7077C91.8714 31.7077 91.2178 31.4507 90.7461 30.9364C90.2763 30.4222 90.0401 29.5612 90.0401 28.3489V23.5102H88.6497V21.9099H90.0401V20.1524L92.1196 19.5202V21.9102H94.4534V23.5144ZM103.708 30.2682C104.544 29.3209 104.963 28.1094 104.963 26.6344V26.6342C104.963 25.1979 104.558 24.0274 103.746 23.1212C102.896 22.1869 101.773 21.7187 100.374 21.7187C98.9235 21.7187 97.7696 22.1929 96.9125 23.1412C96.0574 24.0884 95.6284 25.3067 95.6284 26.7942C95.6284 28.2157 96.0435 29.3942 96.8738 30.3292C97.7039 31.2624 98.8173 31.7297 100.218 31.7297C101.669 31.7297 102.833 31.2434 103.708 30.2682ZM102.768 26.6832C102.768 25.8039 102.579 25.0499 102.201 24.4187C101.757 23.6564 101.121 23.2754 100.298 23.2754C99.4499 23.2754 98.7992 23.6564 98.3565 24.4187C97.9771 25.0499 97.7883 25.8169 97.7883 26.7232C97.7883 27.6034 97.9771 28.3597 98.3565 28.9889C98.8143 29.7512 99.4528 30.1322 100.28 30.1322C101.09 30.1322 101.724 29.7432 102.183 28.9697C102.573 28.3237 102.768 27.5647 102.768 26.6832ZM111.181 23.7304C111.404 23.7296 111.628 23.7494 111.848 23.7894L111.846 21.7549C111.689 21.7299 111.513 21.7159 111.317 21.7159C110.765 21.7167 110.228 21.897 109.786 22.2299C109.304 22.6112 108.952 23.1202 108.728 23.7514H108.669L108.592 21.9149H106.747C106.79 22.9216 106.811 23.9291 106.809 24.9367V31.5127H108.926V26.4762C108.926 25.7132 109.103 25.0807 109.455 24.5807C109.86 24.0124 110.436 23.7304 111.181 23.7304ZM121.317 26.2592C121.323 26.5834 121.297 26.9073 121.24 27.2264H114.888C114.912 28.1747 115.22 28.9009 115.81 29.4009C116.345 29.8472 117.037 30.0712 117.887 30.0712C118.828 30.0712 119.686 29.9212 120.458 29.6182L120.789 31.0974C119.888 31.4937 118.823 31.6907 117.594 31.6907C116.117 31.6907 114.957 31.2524 114.112 30.3782C113.27 29.5032 112.848 28.3267 112.848 26.8532C112.848 25.4069 113.24 24.2017 114.026 23.2404C114.848 22.2139 115.96 21.7009 117.358 21.7009C118.731 21.7009 119.771 22.2139 120.477 23.2404C121.037 24.0534 121.318 25.0619 121.318 26.2592H121.317ZM118.888 24.0664C119.174 24.5277 119.313 25.0729 119.298 25.7059L114.889 25.7039C114.954 25.0609 115.163 24.5067 115.516 24.0454C115.945 23.4654 116.509 23.1764 117.201 23.1764C117.957 23.1764 118.521 23.4724 118.888 24.0664ZM44.4178 7.73819C44.6491 7.68994 44.9282 7.66994 45.2558 7.66994C46.7983 7.66994 47.6177 8.51519 47.6177 10.0387C47.6177 11.7469 46.7119 12.6594 45.1208 12.6594C44.7831 12.6594 44.5429 12.6504 44.4178 12.6304V7.73819ZM52.2019 13.5437C50.8334 13.5437 49.9463 12.5144 49.9463 11.1169C49.9463 9.66069 50.852 8.62219 52.2794 8.62219C53.6281 8.62219 54.5348 9.60269 54.5348 11.0399C54.5348 12.5144 53.6003 13.5437 52.2019 13.5437ZM51.0081 11.0869C51.0081 10.0967 51.4898 9.38869 52.2417 9.38869V9.38844C52.9737 9.38844 53.4551 10.1069 53.4551 11.0669C53.4551 12.0092 52.9633 12.7664 52.2315 12.7664C51.4997 12.7664 51.0081 12.0582 51.0081 11.0869ZM62.3388 8.71944L60.8737 13.4367H59.9194L59.3126 11.3882C59.1617 10.8871 59.0361 10.3786 58.9362 9.86469H58.9163C58.8399 10.3787 58.695 10.8939 58.5409 11.3882L57.8955 13.4367H56.9312L55.5527 8.71919H56.6222L57.1525 10.9619C57.2778 11.4962 57.383 12.0002 57.4704 12.4764H57.4902C57.5667 12.0792 57.6917 11.5832 57.8756 10.9719L58.5409 8.72044H59.3891L60.0258 10.9239C60.1734 11.4361 60.2989 11.9544 60.402 12.4774H60.4298C60.4975 11.9924 60.6035 11.4772 60.7477 10.9239L61.3167 8.72044L62.3388 8.71944ZM66.6906 13.4367H67.7313L67.7323 10.6117C67.7323 9.37944 67.0869 8.62194 66.1037 8.62194C65.467 8.62194 64.8989 8.94219 64.619 9.44619H64.59L64.5414 8.71819H63.6257C63.6545 9.20319 63.6644 9.65044 63.6644 10.0674V13.4367H64.7054V10.6309C64.7054 10.0097 65.1295 9.47544 65.7461 9.47544C66.3729 9.47544 66.6906 9.89369 66.6906 10.7279V13.4367ZM72.1406 11.1169C72.1406 12.5144 73.0288 13.5437 74.3963 13.5437C75.7936 13.5437 76.7292 12.5144 76.7282 11.0399C76.7282 9.60269 75.8224 8.62219 74.4727 8.62219C73.0464 8.62219 72.1406 9.66069 72.1406 11.1169ZM74.435 9.38869C73.6831 9.38869 73.2017 10.0967 73.2017 11.0869C73.2017 12.0582 73.6941 12.7664 74.4241 12.7664C75.1569 12.7664 75.6475 12.0092 75.6475 11.0669C75.6487 10.1069 75.1678 9.38844 74.435 9.38844V9.38869ZM80.7564 12.8934L80.8318 13.4367L81.7703 13.4377C81.7236 13.1564 81.7028 12.7874 81.7028 12.3114V10.5739C81.7028 9.27244 81.0849 8.62219 79.8615 8.62219C79.2268 8.62219 78.6866 8.75844 78.2535 9.03044L78.4652 9.71944C78.8215 9.48644 79.227 9.36944 79.6886 9.36944C80.3343 9.36944 80.6608 9.68069 80.6608 10.3017V10.3887C78.926 10.3887 77.9237 10.9909 77.9237 12.1552C77.9237 12.9514 78.5198 13.5434 79.3588 13.5434C79.9469 13.5434 80.4107 13.3307 80.7286 12.8934H80.7564ZM80.6886 11.0869C79.5327 11.0869 78.9528 11.3692 78.9528 12.0382C78.9528 12.5332 79.2516 12.7754 79.6667 12.7754C80.196 12.7754 80.6886 12.3684 80.6886 11.8152V11.0869ZM86.7082 12.6792L86.7568 13.4367L87.6834 13.4364C87.6556 13.0482 87.6447 12.6212 87.6447 12.1649V6.55494H86.6027V9.26244H86.5819C86.3317 8.83444 85.8878 8.62119 85.261 8.62119C84.0773 8.62119 83.2103 9.66069 83.2103 11.1362C83.2103 12.5434 84.0466 13.5437 85.1756 13.5437C85.8779 13.5437 86.3804 13.2517 86.6794 12.6792H86.7082ZM86.603 10.6609C86.603 10.0007 86.1687 9.43744 85.5064 9.43744C84.7347 9.43744 84.2632 10.1267 84.2632 11.0969C84.2632 12.0482 84.7525 12.6994 85.4856 12.6994C86.1399 12.6994 86.6027 12.1262 86.6027 11.4469L86.603 10.6609ZM91.9955 11.1169C91.9955 12.5144 92.8824 13.5434 94.2499 13.5434V13.5437C95.6492 13.5437 96.5837 12.5144 96.583 11.0399C96.583 9.60269 95.6773 8.62219 94.3273 8.62219C92.9012 8.62219 91.9955 9.66069 91.9955 11.1169ZM94.2886 9.38844C93.5377 9.38844 93.0561 10.0967 93.0561 11.0869C93.0561 12.0582 93.5476 12.7664 94.2787 12.7664C95.0117 12.7664 95.5021 12.0092 95.5021 11.0669C95.5043 10.1069 95.0226 9.38844 94.2886 9.38844ZM101.138 13.4367H102.18V10.6107C102.18 9.37819 101.534 8.62119 100.55 8.62119C99.9146 8.62119 99.3456 8.94219 99.0665 9.44619H99.0377L98.989 8.71819H98.0734C98.1022 9.20319 98.1121 9.65044 98.1121 10.0674V13.4367H99.1541V10.6309C99.1541 10.0097 99.5772 9.47544 100.194 9.47544C100.821 9.47544 101.138 9.89369 101.138 10.7279V13.4367ZM109.183 9.50544H108.038V11.7962C108.038 12.3794 108.238 12.6704 108.643 12.6704C108.827 12.6704 108.981 12.6504 109.105 12.6214L109.134 13.4177C108.932 13.4957 108.662 13.5347 108.327 13.5347C107.506 13.5347 107.016 13.0784 107.016 11.8842V9.50544H106.332V8.71944H107.016V7.85494L108.038 7.54369V8.71819H109.182L109.183 9.50544ZM113.653 13.4367H114.692V10.6309C114.692 9.39744 114.087 8.62119 113.096 8.62119C112.49 8.62119 112.015 8.87444 111.687 9.38844H111.666V6.55469H110.627V13.4367H111.666V10.5929C111.666 9.84569 112.169 9.47644 112.708 9.47644C113.336 9.47644 113.653 9.90369 113.653 10.7479V13.4367ZM120.337 11.3299H117.214C117.234 12.2232 117.821 12.7274 118.69 12.7274C119.152 12.7274 119.577 12.6494 119.952 12.5044L120.114 13.2327C119.671 13.4267 119.15 13.5237 118.543 13.5237C117.078 13.5237 116.211 12.5912 116.211 11.1462C116.211 9.69969 117.099 8.61219 118.426 8.61219C119.622 8.61219 120.373 9.50544 120.373 10.8547C120.38 11.014 120.368 11.1735 120.337 11.3299ZM118.353 9.34044C119.018 9.34044 119.383 9.85469 119.383 10.5829H117.215C117.283 9.86469 117.755 9.34044 118.353 9.34044Z" fill="white"/>
</g>
</g>
</g>
<defs>
<linearGradient id="paint0_linear_1_2051" x1="227.102" y1="40.1062" x2="227.102" y2="-104.153" gradientUnits="userSpaceOnUse">
<stop stop-color="#1A1A1A" stop-opacity="0.1"/>
<stop offset="0.123" stop-color="#212121" stop-opacity="0.151"/>
<stop offset="0.308" stop-color="#353535" stop-opacity="0.227"/>
<stop offset="0.532" stop-color="#575757" stop-opacity="0.318"/>
<stop offset="0.783" stop-color="#858585" stop-opacity="0.421"/>
<stop offset="1" stop-color="#B3B3B3" stop-opacity="0.51"/>
</linearGradient>
</defs>
</svg>
