<svg width="134" height="40" viewBox="0 0 134 40" fill="none" xmlns="http://www.w3.org/2000/svg">
<g id="logo google play">
<g id="google-play-badge (2)">
<path id="Path" d="M129.037 40H4.96296C2.1837 40 0 37.8 0 35V5C0 2.2 2.1837 0 4.96296 0H129.037C131.816 0 134 2.2 134 5V35C134 37.8 131.816 40 129.037 40Z" fill="black"/>
<path id="Shape" fill-rule="evenodd" clip-rule="evenodd" d="M4.96296 0H129.037C131.816 0 134 2.3 134 5V35C134 37.8 131.816 40 129.037 40H4.96296C2.1837 40 0 37.8 0 35V5C0 2.3 2.1837 0 4.96296 0ZM133.206 5C133.206 2.7 131.32 0.8 129.037 0.8H4.96296C2.68 0.8 0.794074 2.7 0.794074 5V35C0.794074 37.3 2.68 39.2 4.96296 39.2H129.037C131.32 39.2 133.206 37.3 133.206 35V5Z" fill="#A6A6A6"/>
<path id="Shape_2" fill-rule="evenodd" clip-rule="evenodd" d="M46.3541 12.1999C46.8504 11.6999 47.0489 10.9999 47.0489 10.1999V9.7999H44.1704V10.5999H46.3541C46.3541 11.0999 46.1555 11.4999 45.8578 11.7999C45.3615 12.2999 44.8652 12.4999 44.1704 12.4999C43.5748 12.4999 43.0785 12.1999 42.5822 11.7999C42.0859 11.3999 41.8874 10.7999 41.8874 10.0999C41.8874 9.3999 42.0859 8.7999 42.5822 8.3999C42.9792 7.8999 43.5748 7.6999 44.1704 7.6999C44.8652 7.6999 45.3615 7.8999 45.7585 8.3999L46.2548 7.8999C46.0563 7.5999 45.7585 7.3999 45.3615 7.1999C44.9644 6.9999 44.5674 6.8999 44.1704 6.8999C43.277 6.8999 42.5822 7.1999 41.9867 7.7999C41.3911 8.3999 41.0933 9.0999 41.0933 9.9999C41.0933 10.8999 41.3911 11.5999 41.9867 12.1999C42.5822 12.7999 43.277 13.0999 44.1704 13.0999C45.0637 13.0999 45.7585 12.7999 46.3541 12.1999ZM48.9348 7.6999H51.6148V6.9999H48.1407V12.9999H51.6148V12.1999H48.9348V10.2999H51.4163V9.5999H48.9348V7.6999ZM54.8904 12.9999H54.0963V7.6999H52.4089V6.9999H56.5778V7.6999H54.8904V12.9999ZM59.4563 6.9999V12.9999H60.2504V6.9999H59.4563ZM63.5259 12.9999H62.8311V7.6999H61.1437V6.9999H65.2133V7.6999H63.5259V12.9999ZM70.8711 13.0999C71.7644 13.0999 72.4592 12.7999 73.0548 12.1999C73.6504 11.5999 73.9481 10.8999 73.9481 9.9999C73.9481 9.0999 73.6504 8.3999 73.0548 7.7999C72.4592 7.1999 71.7644 6.8999 70.8711 6.8999C69.9778 6.8999 69.283 7.1999 68.6874 7.7999C68.0918 8.3999 67.7941 9.0999 67.7941 9.9999C67.7941 10.8999 68.0918 11.5999 68.6874 12.1999C69.283 12.7999 69.9778 13.0999 70.8711 13.0999ZM69.283 11.6999C69.68 12.0999 70.2755 12.3999 70.8711 12.3999C71.4667 12.3999 72.0622 12.1999 72.4592 11.6999C72.8563 11.2999 73.1541 10.6999 73.1541 9.9999C73.1541 9.2999 72.9555 8.6999 72.4592 8.2999C72.0622 7.8999 71.4667 7.5999 70.8711 7.5999C70.2755 7.5999 69.68 7.7999 69.283 8.2999C68.8859 8.6999 68.5881 9.2999 68.5881 9.9999C68.5881 10.6999 68.7867 11.2999 69.283 11.6999ZM75.04 6.9999V12.9999H75.7348V8.0999L78.8118 12.9999H79.6059V6.9999H78.8118V11.6999L75.9333 6.9999H75.04Z" fill="white"/>
<path id="Shape_3" fill-rule="evenodd" clip-rule="evenodd" d="M47.3467 23.1001V24.9001H51.6148C51.5156 25.9001 51.1185 26.7001 50.6222 27.2001C50.0267 27.8001 49.0341 28.5001 47.3467 28.5001C44.6667 28.5001 42.6815 26.4001 42.6815 23.7001C42.6815 21.0001 44.7659 18.9001 47.3467 18.9001C48.7363 18.9001 49.8282 19.5001 50.6222 20.2001L51.9126 18.9001C50.8207 17.9001 49.4311 17.1001 47.4459 17.1001C43.8726 17.1001 40.7956 20.1001 40.7956 23.7001C40.7956 27.3001 43.8726 30.3001 47.4459 30.3001C49.4311 30.3001 50.8207 29.7001 52.0119 28.4001C53.203 27.2001 53.6 25.5001 53.6 24.2001V24.2001C53.6 23.8001 53.6 23.4001 53.5007 23.1001H47.3467ZM58.3645 21.8001C55.9822 21.8001 54.0963 23.6001 54.0963 26.1001C54.0963 28.5001 55.9822 30.4001 58.3645 30.4001C60.7467 30.4001 62.6326 28.6001 62.6326 26.1001C62.6326 23.5001 60.7467 21.8001 58.3645 21.8001ZM63.3274 26.1001C63.3274 23.6001 65.2133 21.8001 67.5956 21.8001C69.9778 21.8001 71.8637 23.5001 71.8637 26.1001C71.8637 28.6001 69.9778 30.4001 67.5956 30.4001C65.2133 30.4001 63.3274 28.5001 63.3274 26.1001ZM65.2133 26.0001C65.2133 27.5001 66.3052 28.6001 67.5956 28.6001C68.8859 28.6001 69.9778 27.5001 69.9778 26.0001C69.9778 24.4001 68.8859 23.4001 67.5956 23.4001C66.3052 23.4001 65.2133 24.5001 65.2133 26.0001ZM55.9822 26.0001C55.9822 27.5001 57.0741 28.6001 58.3645 28.6001C59.6548 28.6001 60.7467 27.5001 60.7467 26.0001C60.7467 24.4001 59.6548 23.4001 58.3645 23.4001C57.0741 23.4001 55.9822 24.5001 55.9822 26.0001ZM88.837 21.8001C91.0207 21.8001 92.0133 23.5001 92.4104 24.5001L92.6089 25.0001L86.9511 27.4001C87.4474 28.3001 88.043 28.7001 89.0356 28.7001C90.0282 28.7001 90.6237 28.2001 91.12 27.5001L92.5096 28.5001C92.1126 29.2001 90.9215 30.4001 89.0356 30.4001C86.6533 30.4001 84.8667 28.5001 84.8667 26.1001C84.8667 23.5001 86.6533 21.8001 88.837 21.8001ZM86.6533 25.9001C86.6533 24.3001 87.9437 23.4001 88.837 23.4001C89.5319 23.4001 90.2267 23.8001 90.4252 24.3001L86.6533 25.9001ZM83.8741 30.0001H81.9882V17.5001H83.8741V30.0001ZM79.0104 22.7001C78.5141 22.2001 77.72 21.7001 76.7274 21.7001C74.643 21.7001 72.6578 23.6001 72.6578 26.0001C72.6578 28.4001 74.5437 30.2001 76.7274 30.2001C77.72 30.2001 78.5141 29.7001 78.9111 29.2001H79.0104V29.8001C79.0104 31.4001 78.117 32.3001 76.7274 32.3001C75.6356 32.3001 74.8415 31.5001 74.643 30.8001L73.0548 31.5001C73.5511 32.6001 74.7422 34.0001 76.8267 34.0001C79.0104 34.0001 80.797 32.7001 80.797 29.6001V22.0001H79.0104V22.7001ZM74.4445 26.0001C74.4445 27.5001 75.5363 28.6001 76.8267 28.6001C78.117 28.6001 79.1096 27.5001 79.1096 26.0001C79.1096 24.5001 78.117 23.4001 76.8267 23.4001C75.5363 23.4001 74.4445 24.5001 74.4445 26.0001ZM101.046 17.5001H96.5793V30.0001H98.4652V25.3001H101.046C103.13 25.3001 105.116 23.8001 105.116 21.4001C105.116 19.0001 103.13 17.5001 101.046 17.5001ZM98.4652 23.5001H101.145C102.436 23.5001 103.23 22.4001 103.329 21.3001C103.329 20.4001 102.535 19.2001 101.145 19.2001H98.4652V23.5001ZM112.56 21.7001C111.17 21.7001 109.781 22.3001 109.284 23.6001L110.972 24.3001C111.369 23.6001 111.964 23.4001 112.659 23.4001C113.652 23.4001 114.545 24.0001 114.644 25.0001V25.1001C114.347 24.9001 113.553 24.6001 112.759 24.6001C110.972 24.6001 109.185 25.6001 109.185 27.4001C109.185 29.1001 110.674 30.2001 112.262 30.2001C113.553 30.2001 114.148 29.6001 114.644 29.0001H114.744V30.0001H116.53V25.2001C116.332 23.0001 114.644 21.7001 112.56 21.7001ZM110.873 27.5001C110.873 28.3001 111.766 28.6001 112.361 28.6001C113.354 28.6001 114.347 27.8001 114.545 26.6001C114.495 26.5799 114.446 26.5597 114.397 26.5397C113.965 26.3617 113.572 26.2001 112.858 26.2001C111.964 26.2001 110.873 26.5001 110.873 27.5001ZM122.784 22.0001L120.699 27.4001H120.6L118.416 22.0001H116.431L119.707 29.6001L117.821 33.8001H119.707L124.769 22.0001H122.784ZM107.994 30.0001H106.108V17.5001H107.994V30.0001Z" fill="white"/>
<g id="Group">
<path id="Path_2" d="M10.323 7.5C10.0252 7.8 9.92593 8.3 9.92593 8.9V31C9.92593 31.6 10.1245 32.1 10.4222 32.4L10.5215 32.5L22.8296 20.1V19.9L10.323 7.5Z" fill="url(#paint0_linear_1_2095)"/>
<path id="Path_3" d="M26.8 24.3L22.7304 20.2V19.9L26.8 15.8L26.8993 15.9L31.763 18.7C33.1526 19.5 33.1526 20.8 31.763 21.6L26.8 24.3Z" fill="url(#paint1_linear_1_2095)"/>
<path id="Path_4" d="M26.8993 24.2L22.7304 20L10.323 32.5C10.8193 33 11.5141 33 12.4074 32.6L26.8993 24.2Z" fill="url(#paint2_linear_1_2095)"/>
<path id="Path_5" d="M26.8993 15.8001L12.4074 7.50011C11.5141 7.00011 10.8193 7.10011 10.323 7.60011L22.7304 20.0001L26.8993 15.8001Z" fill="url(#paint3_linear_1_2095)"/>
<path id="Path_6" opacity="0.2" d="M26.8 24.1001L12.4074 32.3001C11.6133 32.8001 10.9185 32.7001 10.4222 32.3001L10.323 32.4001L10.4222 32.5001C10.9185 32.9001 11.6133 33.0001 12.4074 32.5001L26.8 24.1001Z" fill="black"/>
<path id="Shape_4" opacity="0.12" fill-rule="evenodd" clip-rule="evenodd" d="M26.8 24.1L31.763 21.3C32.3585 20.9 32.7556 20.5 32.7556 20C32.7556 20.5 32.4578 21 31.763 21.4L26.8993 24.2L26.8 24.1ZM9.94384 31.307C9.98388 31.725 10.0955 32.0708 10.323 32.3H10.3326C10.3614 32.3354 10.3913 32.3688 10.4222 32.4V32.3H10.3326C10.1339 32.0548 9.99194 31.7114 9.94384 31.307ZM9.94384 31.307C9.93147 31.1778 9.92593 31.0417 9.92593 30.9V31C9.92593 31.1056 9.93208 31.2081 9.94384 31.307Z" fill="black"/>
<path id="Path_7" opacity="0.25" d="M12.4074 7.60003L31.763 18.7C32.3585 19.1 32.7556 19.5 32.7556 20C32.7556 19.5 32.4578 19 31.763 18.6L12.4074 7.50003C11.0178 6.70003 9.92593 7.30003 9.92593 8.90003V9.00003C9.92593 7.50003 11.0178 6.80003 12.4074 7.60003Z" fill="white"/>
</g>
</g>
</g>
<defs>
<linearGradient id="paint0_linear_1_2095" x1="17.3075" y1="-7.4275" x2="-2.43323" y2="-2.12946" gradientUnits="userSpaceOnUse">
<stop stop-color="#00A0FF"/>
<stop offset="0.007" stop-color="#00A1FF"/>
<stop offset="0.26" stop-color="#00BEFF"/>
<stop offset="0.512" stop-color="#00D2FF"/>
<stop offset="0.76" stop-color="#00DFFF"/>
<stop offset="1" stop-color="#00E3FF"/>
</linearGradient>
<linearGradient id="paint1_linear_1_2095" x1="33.5834" y1="9.8693" x2="9.56562" y2="9.8693" gradientUnits="userSpaceOnUse">
<stop stop-color="#FFE000"/>
<stop offset="0.409" stop-color="#FFBD00"/>
<stop offset="0.775" stop-color="#FFA500"/>
<stop offset="1" stop-color="#FF9C00"/>
</linearGradient>
<linearGradient id="paint2_linear_1_2095" x1="10.0083" y1="13.514" x2="-6.01321" y2="40.2133" gradientUnits="userSpaceOnUse">
<stop stop-color="#FF3A44"/>
<stop offset="1" stop-color="#C31162"/>
</linearGradient>
<linearGradient id="paint3_linear_1_2095" x1="0.677027" y1="4.07966" x2="7.7756" y2="16.0198" gradientUnits="userSpaceOnUse">
<stop stop-color="#32A071"/>
<stop offset="0.069" stop-color="#2DA771"/>
<stop offset="0.476" stop-color="#15CF74"/>
<stop offset="0.801" stop-color="#06E775"/>
<stop offset="1" stop-color="#00F076"/>
</linearGradient>
</defs>
</svg>
