<svg width="20" height="18" viewBox="0 0 20 18" fill="none" xmlns="http://www.w3.org/2000/svg">
<path id="Vector" d="M13.286 1C11.1821 1 9.47661 2.79086 9.47661 5C9.47661 5.33382 9.51555 5.65809 9.58893 5.96808C7.3 5.96808 3.7 5.44444 1 1.88889C1 10.7778 4.6 13.2963 6.4 13.4444C5.05 14.7778 2.9465 15.7647 1 15.9503C1.83744 16.7106 4.46043 16.9669 5.66725 17C11.9081 17 16.9805 11.7471 17.0934 5.22229C18.2903 4.44391 18.8588 2.33377 19 1.88889C18.4169 2.50119 17.2 2.77778 16.2303 2.46181C15.5317 1.56927 14.4721 1 13.286 1Z" stroke="white" stroke-width="1.5" stroke-linejoin="round"/>
</svg>
